<svg xmlns="http://www.w3.org/2000/svg" xmlns:xlink="http://www.w3.org/1999/xlink" width="500" zoomAndPan="magnify" viewBox="50 80 275 200" height="500" preserveAspectRatio="xMidYMid meet" version="1.0"><defs><g/><clipPath id="483a1620f8"><path d="M 236 142 L 259.636719 142 L 259.636719 156 L 236 156 Z M 236 142 " clip-rule="nonzero"/></clipPath><clipPath id="6dbf0d31e9"><path d="M 115.636719 124.582031 L 250 124.582031 L 250 191.332031 L 115.636719 191.332031 Z M 115.636719 124.582031 " clip-rule="nonzero"/></clipPath><clipPath id="33d7b30468"><path d="M 223 178 L 244 178 L 244 191.332031 L 223 191.332031 Z M 223 178 " clip-rule="nonzero"/></clipPath></defs><g clip-path="url(#483a1620f8)"><path fill="#06d610" d="M 252.511719 142.480469 L 243.5625 142.480469 C 239.9375 142.480469 236.988281 145.425781 236.988281 149.050781 C 236.988281 152.675781 239.9375 155.621094 243.5625 155.621094 L 252.511719 155.621094 C 256.132812 155.621094 259.082031 152.675781 259.082031 149.050781 C 259.082031 145.425781 256.132812 142.480469 252.511719 142.480469 Z M 252.511719 151.425781 L 243.5625 151.425781 C 242.25 151.425781 241.183594 150.359375 241.183594 149.050781 C 241.183594 147.738281 242.25 146.671875 243.5625 146.671875 L 252.511719 146.671875 C 253.820312 146.671875 254.886719 147.738281 254.886719 149.050781 C 254.886719 150.359375 253.820312 151.425781 252.511719 151.425781 Z M 252.511719 151.425781 " fill-opacity="1" fill-rule="nonzero"/></g><g clip-path="url(#6dbf0d31e9)"><path fill="#06d610" d="M 210.285156 178.273438 L 203.980469 178.273438 C 202.660156 178.273438 201.539062 177.257812 201.480469 176.011719 C 201.449219 175.355469 201.679688 174.730469 202.132812 174.257812 C 202.585938 173.78125 203.199219 173.519531 203.855469 173.519531 L 229.300781 173.519531 C 232.921875 173.519531 235.871094 170.570312 235.871094 166.945312 C 235.871094 163.324219 232.921875 160.378906 229.300781 160.378906 L 211.25 160.378906 C 209.929688 160.378906 208.808594 159.363281 208.75 158.117188 C 208.71875 157.457031 208.953125 156.832031 209.40625 156.359375 C 209.859375 155.882812 210.46875 155.621094 211.125 155.621094 L 220.632812 155.621094 C 224.253906 155.621094 227.203125 152.675781 227.203125 149.050781 C 227.203125 145.425781 224.253906 142.480469 220.632812 142.480469 L 200.34375 142.480469 C 199.023438 142.480469 197.902344 141.464844 197.84375 140.21875 C 197.8125 139.5625 198.046875 138.9375 198.496094 138.460938 C 198.953125 137.988281 199.5625 137.726562 200.21875 137.726562 L 243.28125 137.726562 C 245.070312 137.726562 246.804688 136.984375 248.039062 135.691406 C 249.289062 134.378906 249.929688 132.65625 249.847656 130.839844 C 249.679688 127.332031 246.742188 124.582031 243.15625 124.582031 L 160.71875 124.582031 C 159.5625 124.582031 158.625 125.523438 158.625 126.679688 C 158.625 127.835938 159.5625 128.777344 160.71875 128.777344 L 243.15625 128.777344 C 244.476562 128.777344 245.597656 129.792969 245.65625 131.035156 C 245.6875 131.695312 245.457031 132.320312 245 132.792969 C 244.546875 133.269531 243.9375 133.53125 243.28125 133.53125 L 200.21875 133.53125 C 198.429688 133.53125 196.699219 134.273438 195.464844 135.566406 C 194.210938 136.878906 193.570312 138.601562 193.65625 140.417969 C 193.820312 143.925781 196.757812 146.675781 200.34375 146.675781 L 220.632812 146.675781 C 221.941406 146.675781 223.007812 147.742188 223.007812 149.050781 C 223.007812 150.359375 221.941406 151.425781 220.632812 151.425781 L 211.125 151.425781 C 209.335938 151.425781 207.605469 152.171875 206.371094 153.464844 C 205.117188 154.773438 204.476562 156.5 204.558594 158.316406 C 204.726562 161.820312 207.664062 164.570312 211.25 164.570312 L 229.300781 164.570312 C 230.609375 164.570312 231.675781 165.636719 231.675781 166.949219 C 231.675781 168.257812 230.609375 169.324219 229.300781 169.324219 L 203.855469 169.324219 C 202.066406 169.324219 200.332031 170.066406 199.097656 171.359375 C 197.847656 172.671875 197.203125 174.394531 197.289062 176.210938 C 197.453125 179.71875 200.394531 182.46875 203.980469 182.46875 L 210.285156 182.46875 C 211.597656 182.46875 212.664062 183.535156 212.664062 184.84375 C 212.664062 186.15625 211.597656 187.222656 210.285156 187.222656 L 122.828125 187.222656 C 121.328125 187.222656 120.105469 186 120.105469 184.5 L 120.105469 141.359375 L 170.296875 141.359375 C 171.457031 141.359375 172.394531 140.421875 172.394531 139.261719 C 172.394531 138.105469 171.457031 137.164062 170.296875 137.164062 L 120.105469 137.164062 L 120.105469 131.5 C 120.105469 130 121.328125 128.777344 122.828125 128.777344 L 152.332031 128.777344 C 153.488281 128.777344 154.429688 127.835938 154.429688 126.679688 C 154.429688 125.523438 153.488281 124.582031 152.332031 124.582031 L 122.828125 124.582031 C 119.011719 124.582031 115.910156 127.6875 115.910156 131.5 L 115.910156 184.496094 C 115.910156 188.3125 119.011719 191.414062 122.828125 191.414062 L 210.285156 191.414062 C 213.910156 191.414062 216.855469 188.464844 216.855469 184.84375 C 216.855469 181.21875 213.910156 178.273438 210.285156 178.273438 Z M 210.285156 178.273438 " fill-opacity="1" fill-rule="nonzero"/></g><g clip-path="url(#33d7b30468)"><path fill="#06d610" d="M 237.410156 178.273438 L 229.578125 178.273438 C 225.957031 178.273438 223.007812 181.21875 223.007812 184.84375 C 223.007812 188.464844 225.957031 191.414062 229.578125 191.414062 L 237.410156 191.414062 C 241.03125 191.414062 243.980469 188.464844 243.980469 184.84375 C 243.980469 181.21875 241.03125 178.273438 237.410156 178.273438 Z M 237.410156 187.21875 L 229.578125 187.21875 C 228.269531 187.21875 227.203125 186.152344 227.203125 184.84375 C 227.203125 183.535156 228.269531 182.46875 229.578125 182.46875 L 237.410156 182.46875 C 238.71875 182.46875 239.785156 183.535156 239.785156 184.84375 C 239.785156 186.152344 238.71875 187.21875 237.410156 187.21875 Z M 237.410156 187.21875 " fill-opacity="1" fill-rule="nonzero"/></g><path fill="#06d610" d="M 188.195312 141.359375 C 189.351562 141.359375 190.292969 140.421875 190.292969 139.261719 C 190.292969 138.105469 189.351562 137.164062 188.195312 137.164062 L 178.964844 137.164062 C 177.808594 137.164062 176.867188 138.105469 176.867188 139.261719 C 176.867188 140.421875 177.808594 141.359375 178.964844 141.359375 Z M 188.195312 141.359375 " fill-opacity="1" fill-rule="nonzero"/><path fill="#06d610" d="M 127.09375 133.390625 C 127.09375 134.394531 126.28125 135.210938 125.277344 135.210938 C 124.273438 135.210938 123.460938 134.394531 123.460938 133.390625 C 123.460938 132.386719 124.273438 131.574219 125.277344 131.574219 C 126.28125 131.574219 127.09375 132.386719 127.09375 133.390625 Z M 127.09375 133.390625 " fill-opacity="1" fill-rule="nonzero"/><path fill="#06d610" d="M 133.804688 133.390625 C 133.804688 134.394531 132.992188 135.210938 131.988281 135.210938 C 130.984375 135.210938 130.171875 134.394531 130.171875 133.390625 C 130.171875 132.386719 130.984375 131.574219 131.988281 131.574219 C 132.992188 131.574219 133.804688 132.386719 133.804688 133.390625 Z M 133.804688 133.390625 " fill-opacity="1" fill-rule="nonzero"/><path fill="#06d610" d="M 140.515625 133.390625 C 140.515625 134.394531 139.703125 135.210938 138.699219 135.210938 C 137.695312 135.210938 136.882812 134.394531 136.882812 133.390625 C 136.882812 132.386719 137.695312 131.574219 138.699219 131.574219 C 139.703125 131.574219 140.515625 132.386719 140.515625 133.390625 Z M 140.515625 133.390625 " fill-opacity="1" fill-rule="nonzero"/><path fill="#06d610" d="M 132.210938 149.105469 C 131.394531 148.285156 130.066406 148.285156 129.246094 149.105469 L 123.234375 155.121094 C 122.414062 155.9375 122.414062 157.265625 123.234375 158.082031 L 129.527344 164.375 C 129.9375 164.785156 130.472656 164.992188 131.007812 164.992188 C 131.546875 164.992188 132.082031 164.785156 132.492188 164.375 C 133.3125 163.554688 133.3125 162.226562 132.492188 161.410156 L 127.683594 156.601562 L 132.210938 152.070312 C 133.03125 151.253906 133.03125 149.925781 132.210938 149.105469 Z M 132.210938 149.105469 " fill-opacity="1" fill-rule="nonzero"/><path fill="#06d610" d="M 146.585938 164.375 C 146.996094 164.785156 147.53125 164.992188 148.066406 164.992188 C 148.605469 164.992188 149.140625 164.785156 149.550781 164.375 L 155.84375 158.082031 C 156.660156 157.265625 156.660156 155.9375 155.84375 155.121094 L 149.828125 149.105469 C 149.011719 148.285156 147.683594 148.285156 146.863281 149.105469 C 146.046875 149.925781 146.046875 151.253906 146.863281 152.070312 L 151.394531 156.601562 L 146.585938 161.410156 C 145.765625 162.226562 145.765625 163.554688 146.585938 164.375 Z M 146.585938 164.375 " fill-opacity="1" fill-rule="nonzero"/><path fill="#06d610" d="M 136.460938 164.851562 C 137.195312 164.851562 137.910156 164.460938 138.292969 163.773438 L 145.003906 151.75 C 145.570312 150.738281 145.207031 149.460938 144.195312 148.898438 C 143.183594 148.332031 141.90625 148.695312 141.34375 149.707031 L 134.632812 161.730469 C 134.066406 162.742188 134.429688 164.019531 135.441406 164.585938 C 135.765625 164.765625 136.113281 164.851562 136.460938 164.851562 Z M 136.460938 164.851562 " fill-opacity="1" fill-rule="nonzero"/><path fill="#06d610" d="M 162.46875 162.332031 L 180.644531 162.332031 C 181.800781 162.332031 182.742188 161.394531 182.742188 160.234375 C 182.742188 159.078125 181.800781 158.136719 180.644531 158.136719 L 162.46875 158.136719 C 161.308594 158.136719 160.371094 159.078125 160.371094 160.234375 C 160.371094 161.394531 161.308594 162.332031 162.46875 162.332031 Z M 162.46875 162.332031 " fill-opacity="1" fill-rule="nonzero"/><path fill="#06d610" d="M 162.46875 152.546875 L 164.707031 152.546875 C 165.863281 152.546875 166.804688 151.605469 166.804688 150.449219 C 166.804688 149.289062 165.863281 148.351562 164.707031 148.351562 L 162.46875 148.351562 C 161.308594 148.351562 160.371094 149.289062 160.371094 150.449219 C 160.371094 151.605469 161.308594 152.546875 162.46875 152.546875 Z M 162.46875 152.546875 " fill-opacity="1" fill-rule="nonzero"/><path fill="#06d610" d="M 198.402344 160.234375 C 198.402344 159.078125 197.460938 158.136719 196.304688 158.136719 L 187.636719 158.136719 C 186.476562 158.136719 185.539062 159.078125 185.539062 160.234375 C 185.539062 161.394531 186.476562 162.332031 187.636719 162.332031 L 196.304688 162.332031 C 197.460938 162.332031 198.402344 161.394531 198.402344 160.234375 Z M 198.402344 160.234375 " fill-opacity="1" fill-rule="nonzero"/><path fill="#06d610" d="M 166.523438 170.582031 C 166.523438 169.425781 165.582031 168.488281 164.425781 168.488281 L 130.871094 168.488281 C 129.710938 168.488281 128.773438 169.425781 128.773438 170.582031 C 128.773438 171.742188 129.710938 172.679688 130.871094 172.679688 L 164.425781 172.679688 C 165.582031 172.679688 166.523438 171.742188 166.523438 170.582031 Z M 166.523438 170.582031 " fill-opacity="1" fill-rule="nonzero"/><path fill="#06d610" d="M 187.636719 168.488281 L 171.695312 168.488281 C 170.539062 168.488281 169.597656 169.425781 169.597656 170.582031 C 169.597656 171.742188 170.539062 172.679688 171.695312 172.679688 L 187.636719 172.679688 C 188.792969 172.679688 189.730469 171.742188 189.730469 170.582031 C 189.730469 169.425781 188.792969 168.488281 187.636719 168.488281 Z M 187.636719 168.488281 " fill-opacity="1" fill-rule="nonzero"/><path fill="#06d610" d="M 130.871094 177.710938 C 129.710938 177.710938 128.773438 178.652344 128.773438 179.808594 C 128.773438 180.96875 129.710938 181.90625 130.871094 181.90625 L 141.777344 181.90625 C 142.933594 181.90625 143.871094 180.96875 143.871094 179.808594 C 143.871094 178.652344 142.933594 177.710938 141.777344 177.710938 Z M 130.871094 177.710938 " fill-opacity="1" fill-rule="nonzero"/><path fill="#06d610" d="M 148.207031 177.710938 C 147.046875 177.710938 146.109375 178.652344 146.109375 179.808594 C 146.109375 180.96875 147.046875 181.90625 148.207031 181.90625 L 154.359375 181.90625 C 155.515625 181.90625 156.457031 180.96875 156.457031 179.808594 C 156.457031 178.652344 155.515625 177.710938 154.359375 177.710938 Z M 148.207031 177.710938 " fill-opacity="1" fill-rule="nonzero"/><path fill="#06d610" d="M 159.953125 181.90625 L 187.636719 181.90625 C 188.792969 181.90625 189.730469 180.96875 189.730469 179.808594 C 189.730469 178.652344 188.792969 177.710938 187.636719 177.710938 L 159.953125 177.710938 C 158.792969 177.710938 157.855469 178.652344 157.855469 179.808594 C 157.855469 180.96875 158.792969 181.90625 159.953125 181.90625 Z M 159.953125 181.90625 " fill-opacity="1" fill-rule="nonzero"/><path fill="#06d610" d="M 169.039062 150.726562 C 169.039062 151.886719 169.980469 152.824219 171.136719 152.824219 L 188.195312 152.824219 C 189.351562 152.824219 190.292969 151.886719 190.292969 150.726562 C 190.292969 149.570312 189.351562 148.632812 188.195312 148.632812 L 171.136719 148.632812 C 169.980469 148.632812 169.039062 149.570312 169.039062 150.726562 Z M 169.039062 150.726562 " fill-opacity="1" fill-rule="nonzero"/><g fill="#000000" fill-opacity="1"><g transform="translate(79.136718, 228.116733)"><g><path d="M 22.109375 -25.046875 C 22.722656 -24.710938 23.03125 -24.203125 23.03125 -23.515625 C 23.03125 -23.066406 22.878906 -22.648438 22.578125 -22.265625 C 22.265625 -21.859375 21.84375 -21.65625 21.3125 -21.65625 C 20.957031 -21.65625 20.617188 -21.742188 20.296875 -21.921875 C 18.722656 -22.804688 17.023438 -23.25 15.203125 -23.25 C 13.296875 -23.25 11.613281 -22.832031 10.15625 -22 C 8.707031 -21.164062 7.578125 -19.992188 6.765625 -18.484375 C 5.953125 -16.972656 5.546875 -15.242188 5.546875 -13.296875 C 5.546875 -11.191406 5.960938 -9.378906 6.796875 -7.859375 C 7.640625 -6.347656 8.796875 -5.191406 10.265625 -4.390625 C 11.734375 -3.585938 13.378906 -3.1875 15.203125 -3.1875 C 17.078125 -3.1875 18.773438 -3.644531 20.296875 -4.5625 C 20.597656 -4.707031 20.925781 -4.78125 21.28125 -4.78125 C 21.832031 -4.78125 22.273438 -4.566406 22.609375 -4.140625 C 22.910156 -3.765625 23.0625 -3.359375 23.0625 -2.921875 C 23.0625 -2.617188 22.976562 -2.332031 22.8125 -2.0625 C 22.65625 -1.800781 22.4375 -1.59375 22.15625 -1.4375 C 21.164062 -0.882812 20.054688 -0.441406 18.828125 -0.109375 C 17.597656 0.210938 16.390625 0.375 15.203125 0.375 C 12.742188 0.375 10.476562 -0.164062 8.40625 -1.25 C 6.34375 -2.34375 4.695312 -3.925781 3.46875 -6 C 2.25 -8.082031 1.640625 -10.515625 1.640625 -13.296875 C 1.640625 -15.859375 2.226562 -18.171875 3.40625 -20.234375 C 4.582031 -22.296875 6.203125 -23.914062 8.265625 -25.09375 C 10.328125 -26.269531 12.640625 -26.859375 15.203125 -26.859375 C 17.660156 -26.859375 19.960938 -26.253906 22.109375 -25.046875 Z M 22.109375 -25.046875 "/></g></g></g><g fill="#000000" fill-opacity="1"><g transform="translate(103.375761, 228.116733)"><g><path d="M 21.546875 -9.953125 C 21.546875 -7.972656 21.101562 -6.195312 20.21875 -4.625 C 19.332031 -3.0625 18.117188 -1.835938 16.578125 -0.953125 C 15.046875 -0.0664062 13.359375 0.375 11.515625 0.375 C 9.660156 0.375 7.96875 -0.0664062 6.4375 -0.953125 C 4.90625 -1.835938 3.695312 -3.0625 2.8125 -4.625 C 1.925781 -6.195312 1.484375 -7.972656 1.484375 -9.953125 C 1.484375 -11.929688 1.925781 -13.71875 2.8125 -15.3125 C 3.695312 -16.90625 4.90625 -18.144531 6.4375 -19.03125 C 7.96875 -19.925781 9.660156 -20.375 11.515625 -20.375 C 13.359375 -20.375 15.046875 -19.925781 16.578125 -19.03125 C 18.117188 -18.144531 19.332031 -16.90625 20.21875 -15.3125 C 21.101562 -13.71875 21.546875 -11.929688 21.546875 -9.953125 Z M 17.9375 -9.953125 C 17.9375 -11.328125 17.648438 -12.550781 17.078125 -13.625 C 16.503906 -14.695312 15.726562 -15.53125 14.75 -16.125 C 13.78125 -16.726562 12.703125 -17.03125 11.515625 -17.03125 C 10.328125 -17.03125 9.242188 -16.726562 8.265625 -16.125 C 7.285156 -15.53125 6.507812 -14.695312 5.9375 -13.625 C 5.375 -12.550781 5.09375 -11.328125 5.09375 -9.953125 C 5.09375 -8.609375 5.375 -7.40625 5.9375 -6.34375 C 6.507812 -5.28125 7.285156 -4.453125 8.265625 -3.859375 C 9.242188 -3.265625 10.328125 -2.96875 11.515625 -2.96875 C 12.703125 -2.96875 13.78125 -3.265625 14.75 -3.859375 C 15.726562 -4.453125 16.503906 -5.28125 17.078125 -6.34375 C 17.648438 -7.40625 17.9375 -8.609375 17.9375 -9.953125 Z M 17.9375 -9.953125 "/></g></g></g><g fill="#000000" fill-opacity="1"><g transform="translate(126.399052, 228.116733)"><g><path d="M 18.84375 -28.125 C 19.375 -28.125 19.8125 -27.953125 20.15625 -27.609375 C 20.5 -27.265625 20.671875 -26.828125 20.671875 -26.296875 L 20.671875 -1.828125 C 20.671875 -1.316406 20.5 -0.882812 20.15625 -0.53125 C 19.8125 -0.175781 19.375 0 18.84375 0 C 18.3125 0 17.878906 -0.171875 17.546875 -0.515625 C 17.222656 -0.859375 17.0625 -1.296875 17.0625 -1.828125 L 17.0625 -2.890625 C 16.425781 -1.972656 15.53125 -1.195312 14.375 -0.5625 C 13.226562 0.0625 11.992188 0.375 10.671875 0.375 C 8.953125 0.375 7.394531 -0.0664062 6 -0.953125 C 4.601562 -1.835938 3.5 -3.070312 2.6875 -4.65625 C 1.882812 -6.238281 1.484375 -8.019531 1.484375 -10 C 1.484375 -11.96875 1.878906 -13.742188 2.671875 -15.328125 C 3.472656 -16.910156 4.570312 -18.144531 5.96875 -19.03125 C 7.363281 -19.925781 8.894531 -20.375 10.5625 -20.375 C 11.90625 -20.375 13.144531 -20.09375 14.28125 -19.53125 C 15.425781 -18.976562 16.351562 -18.253906 17.0625 -17.359375 L 17.0625 -26.296875 C 17.0625 -26.828125 17.222656 -27.265625 17.546875 -27.609375 C 17.878906 -27.953125 18.3125 -28.125 18.84375 -28.125 Z M 11.09375 -2.96875 C 12.28125 -2.96875 13.335938 -3.269531 14.265625 -3.875 C 15.191406 -4.476562 15.914062 -5.3125 16.4375 -6.375 C 16.957031 -7.445312 17.21875 -8.65625 17.21875 -10 C 17.21875 -11.3125 16.957031 -12.503906 16.4375 -13.578125 C 15.914062 -14.660156 15.191406 -15.503906 14.265625 -16.109375 C 13.335938 -16.722656 12.28125 -17.03125 11.09375 -17.03125 C 9.90625 -17.03125 8.847656 -16.722656 7.921875 -16.109375 C 6.992188 -15.503906 6.269531 -14.660156 5.75 -13.578125 C 5.238281 -12.503906 4.984375 -11.3125 4.984375 -10 C 4.984375 -8.65625 5.238281 -7.445312 5.75 -6.375 C 6.269531 -5.3125 6.992188 -4.476562 7.921875 -3.875 C 8.847656 -3.269531 9.90625 -2.96875 11.09375 -2.96875 Z M 11.09375 -2.96875 "/></g></g></g><g fill="#000000" fill-opacity="1"><g transform="translate(149.726287, 228.116733)"><g><path d="M 20.171875 -10.71875 C 20.148438 -10.257812 19.960938 -9.867188 19.609375 -9.546875 C 19.253906 -9.234375 18.835938 -9.078125 18.359375 -9.078125 L 4.984375 -9.078125 C 5.160156 -7.234375 5.863281 -5.753906 7.09375 -4.640625 C 8.320312 -3.523438 9.820312 -2.96875 11.59375 -2.96875 C 12.800781 -2.96875 13.785156 -3.144531 14.546875 -3.5 C 15.304688 -3.851562 15.976562 -4.304688 16.5625 -4.859375 C 16.945312 -5.085938 17.316406 -5.203125 17.671875 -5.203125 C 18.097656 -5.203125 18.457031 -5.050781 18.75 -4.75 C 19.039062 -4.445312 19.1875 -4.09375 19.1875 -3.6875 C 19.1875 -3.15625 18.9375 -2.671875 18.4375 -2.234375 C 17.695312 -1.503906 16.71875 -0.882812 15.5 -0.375 C 14.289062 0.125 13.050781 0.375 11.78125 0.375 C 9.726562 0.375 7.921875 -0.0507812 6.359375 -0.90625 C 4.804688 -1.769531 3.601562 -2.972656 2.75 -4.515625 C 1.90625 -6.066406 1.484375 -7.816406 1.484375 -9.765625 C 1.484375 -11.890625 1.921875 -13.753906 2.796875 -15.359375 C 3.671875 -16.972656 4.820312 -18.210938 6.25 -19.078125 C 7.675781 -19.941406 9.21875 -20.375 10.875 -20.375 C 12.488281 -20.375 14.003906 -19.953125 15.421875 -19.109375 C 16.847656 -18.273438 17.988281 -17.125 18.84375 -15.65625 C 19.707031 -14.1875 20.148438 -12.539062 20.171875 -10.71875 Z M 10.875 -17.03125 C 9.445312 -17.03125 8.210938 -16.628906 7.171875 -15.828125 C 6.140625 -15.023438 5.457031 -13.789062 5.125 -12.125 L 16.34375 -12.125 L 16.34375 -12.421875 C 16.21875 -13.765625 15.613281 -14.867188 14.53125 -15.734375 C 13.457031 -16.597656 12.238281 -17.03125 10.875 -17.03125 Z M 10.875 -17.03125 "/></g></g></g><g fill="#000000" fill-opacity="1"><g transform="translate(171.38186, 228.116733)"><g><path d="M 26.265625 -26.640625 C 26.765625 -26.609375 27.191406 -26.421875 27.546875 -26.078125 C 27.898438 -25.742188 28.078125 -25.320312 28.078125 -24.8125 L 28.078125 -1.828125 C 28.078125 -1.316406 27.90625 -0.882812 27.5625 -0.53125 C 27.226562 -0.175781 26.78125 0 26.21875 0 C 25.664062 0 25.207031 -0.171875 24.84375 -0.515625 C 24.488281 -0.859375 24.3125 -1.296875 24.3125 -1.828125 L 24.3125 -19.421875 L 16.953125 -8.25 C 16.773438 -8.019531 16.550781 -7.828125 16.28125 -7.671875 C 16.019531 -7.523438 15.75 -7.460938 15.46875 -7.484375 C 15.21875 -7.460938 14.957031 -7.523438 14.6875 -7.671875 C 14.414062 -7.828125 14.191406 -8.019531 14.015625 -8.25 L 6.609375 -19.765625 L 6.609375 -1.828125 C 6.609375 -1.296875 6.445312 -0.859375 6.125 -0.515625 C 5.8125 -0.171875 5.390625 0 4.859375 0 C 4.359375 0 3.945312 -0.171875 3.625 -0.515625 C 3.3125 -0.859375 3.15625 -1.296875 3.15625 -1.828125 L 3.15625 -24.8125 C 3.15625 -25.289062 3.332031 -25.710938 3.6875 -26.078125 C 4.039062 -26.453125 4.484375 -26.640625 5.015625 -26.640625 C 5.316406 -26.640625 5.613281 -26.5625 5.90625 -26.40625 C 6.195312 -26.257812 6.429688 -26.054688 6.609375 -25.796875 L 15.625 -12.15625 L 24.734375 -25.796875 C 25.140625 -26.359375 25.648438 -26.640625 26.265625 -26.640625 Z M 26.265625 -26.640625 "/></g></g></g><g fill="#000000" fill-opacity="1"><g transform="translate(202.61148, 228.116733)"><g><path d="M 18.84375 -20.171875 C 19.375 -20.171875 19.8125 -20 20.15625 -19.65625 C 20.5 -19.320312 20.671875 -18.875 20.671875 -18.3125 L 20.671875 -1.828125 C 20.671875 -1.316406 20.5 -0.882812 20.15625 -0.53125 C 19.8125 -0.175781 19.375 0 18.84375 0 C 18.3125 0 17.878906 -0.171875 17.546875 -0.515625 C 17.222656 -0.859375 17.0625 -1.296875 17.0625 -1.828125 L 17.0625 -2.8125 C 16.40625 -1.925781 15.503906 -1.171875 14.359375 -0.546875 C 13.222656 0.0664062 11.992188 0.375 10.671875 0.375 C 8.953125 0.375 7.390625 -0.0664062 5.984375 -0.953125 C 4.578125 -1.835938 3.472656 -3.070312 2.671875 -4.65625 C 1.878906 -6.238281 1.484375 -8.019531 1.484375 -10 C 1.484375 -11.96875 1.878906 -13.742188 2.671875 -15.328125 C 3.472656 -16.910156 4.570312 -18.144531 5.96875 -19.03125 C 7.363281 -19.925781 8.894531 -20.375 10.5625 -20.375 C 11.90625 -20.375 13.148438 -20.09375 14.296875 -19.53125 C 15.453125 -18.976562 16.375 -18.269531 17.0625 -17.40625 L 17.0625 -18.3125 C 17.0625 -18.84375 17.222656 -19.285156 17.546875 -19.640625 C 17.878906 -19.992188 18.3125 -20.171875 18.84375 -20.171875 Z M 11.09375 -2.96875 C 12.28125 -2.96875 13.335938 -3.269531 14.265625 -3.875 C 15.191406 -4.476562 15.914062 -5.3125 16.4375 -6.375 C 16.957031 -7.445312 17.21875 -8.65625 17.21875 -10 C 17.21875 -11.3125 16.957031 -12.5 16.4375 -13.5625 C 15.914062 -14.625 15.191406 -15.46875 14.265625 -16.09375 C 13.335938 -16.71875 12.28125 -17.03125 11.09375 -17.03125 C 9.90625 -17.03125 8.847656 -16.722656 7.921875 -16.109375 C 6.992188 -15.503906 6.269531 -14.671875 5.75 -13.609375 C 5.238281 -12.546875 4.984375 -11.34375 4.984375 -10 C 4.984375 -8.65625 5.238281 -7.445312 5.75 -6.375 C 6.269531 -5.3125 6.992188 -4.476562 7.921875 -3.875 C 8.847656 -3.269531 9.90625 -2.96875 11.09375 -2.96875 Z M 11.09375 -2.96875 "/></g></g></g><g fill="#000000" fill-opacity="1"><g transform="translate(225.938715, 228.116733)"><g><path d="M 1.5625 -3.109375 C 1.332031 -3.460938 1.21875 -3.804688 1.21875 -4.140625 C 1.21875 -4.648438 1.484375 -5.082031 2.015625 -5.4375 C 2.265625 -5.613281 2.554688 -5.703125 2.890625 -5.703125 C 3.347656 -5.703125 3.765625 -5.507812 4.140625 -5.125 C 4.898438 -4.269531 5.71875 -3.625 6.59375 -3.1875 C 7.46875 -2.757812 8.515625 -2.546875 9.734375 -2.546875 C 10.691406 -2.566406 11.535156 -2.785156 12.265625 -3.203125 C 13.003906 -3.628906 13.375 -4.3125 13.375 -5.25 C 13.375 -6.101562 13 -6.757812 12.25 -7.21875 C 11.507812 -7.675781 10.414062 -8.09375 8.96875 -8.46875 C 7.550781 -8.851562 6.375 -9.253906 5.4375 -9.671875 C 4.5 -10.085938 3.707031 -10.691406 3.0625 -11.484375 C 2.414062 -12.285156 2.09375 -13.332031 2.09375 -14.625 C 2.09375 -15.769531 2.414062 -16.769531 3.0625 -17.625 C 3.707031 -18.488281 4.566406 -19.160156 5.640625 -19.640625 C 6.722656 -20.128906 7.894531 -20.375 9.15625 -20.375 C 10.375 -20.375 11.582031 -20.144531 12.78125 -19.6875 C 13.988281 -19.226562 14.972656 -18.53125 15.734375 -17.59375 C 16.035156 -17.238281 16.1875 -16.867188 16.1875 -16.484375 C 16.1875 -16.085938 15.984375 -15.695312 15.578125 -15.3125 C 15.328125 -15.082031 15.007812 -14.96875 14.625 -14.96875 C 14.175781 -14.96875 13.8125 -15.117188 13.53125 -15.421875 C 13 -16.035156 12.34375 -16.503906 11.5625 -16.828125 C 10.789062 -17.160156 9.9375 -17.328125 9 -17.328125 C 8.039062 -17.328125 7.222656 -17.128906 6.546875 -16.734375 C 5.878906 -16.347656 5.546875 -15.6875 5.546875 -14.75 C 5.578125 -13.851562 5.960938 -13.191406 6.703125 -12.765625 C 7.453125 -12.335938 8.597656 -11.921875 10.140625 -11.515625 C 11.484375 -11.160156 12.597656 -10.78125 13.484375 -10.375 C 14.367188 -9.96875 15.113281 -9.363281 15.71875 -8.5625 C 16.332031 -7.769531 16.640625 -6.726562 16.640625 -5.4375 C 16.640625 -4.238281 16.296875 -3.203125 15.609375 -2.328125 C 14.929688 -1.460938 14.039062 -0.796875 12.9375 -0.328125 C 11.832031 0.140625 10.660156 0.375 9.421875 0.375 C 7.828125 0.375 6.351562 0.0976562 5 -0.453125 C 3.644531 -1.015625 2.5 -1.898438 1.5625 -3.109375 Z M 1.5625 -3.109375 "/></g></g></g><g fill="#000000" fill-opacity="1"><g transform="translate(244.061017, 228.116733)"><g><path d="M 8.09375 -16.375 L 8.09375 -5.046875 C 8.09375 -3.785156 8.660156 -3.15625 9.796875 -3.15625 C 9.972656 -3.15625 10.210938 -3.195312 10.515625 -3.28125 C 10.828125 -3.375 11.070312 -3.421875 11.25 -3.421875 C 11.570312 -3.421875 11.847656 -3.28125 12.078125 -3 C 12.304688 -2.71875 12.421875 -2.363281 12.421875 -1.9375 C 12.421875 -1.40625 12.117188 -0.945312 11.515625 -0.5625 C 10.910156 -0.1875 10.226562 0 9.46875 0 C 8.625 0 7.851562 -0.0859375 7.15625 -0.265625 C 6.46875 -0.441406 5.847656 -0.890625 5.296875 -1.609375 C 4.753906 -2.335938 4.484375 -3.4375 4.484375 -4.90625 L 4.484375 -16.375 L 2.28125 -16.375 C 1.800781 -16.375 1.398438 -16.53125 1.078125 -16.84375 C 0.765625 -17.164062 0.609375 -17.566406 0.609375 -18.046875 C 0.609375 -18.523438 0.765625 -18.914062 1.078125 -19.21875 C 1.398438 -19.53125 1.800781 -19.6875 2.28125 -19.6875 L 4.484375 -19.6875 L 4.484375 -22.875 C 4.484375 -23.382812 4.65625 -23.816406 5 -24.171875 C 5.34375 -24.523438 5.78125 -24.703125 6.3125 -24.703125 C 6.8125 -24.703125 7.234375 -24.523438 7.578125 -24.171875 C 7.921875 -23.816406 8.09375 -23.382812 8.09375 -22.875 L 8.09375 -19.6875 L 11.25 -19.6875 C 11.726562 -19.6875 12.125 -19.523438 12.4375 -19.203125 C 12.757812 -18.890625 12.921875 -18.492188 12.921875 -18.015625 C 12.921875 -17.535156 12.757812 -17.140625 12.4375 -16.828125 C 12.125 -16.523438 11.726562 -16.375 11.25 -16.375 Z M 8.09375 -16.375 "/></g></g></g><g fill="#000000" fill-opacity="1"><g transform="translate(258.49807, 228.116733)"><g><path d="M 20.171875 -10.71875 C 20.148438 -10.257812 19.960938 -9.867188 19.609375 -9.546875 C 19.253906 -9.234375 18.835938 -9.078125 18.359375 -9.078125 L 4.984375 -9.078125 C 5.160156 -7.234375 5.863281 -5.753906 7.09375 -4.640625 C 8.320312 -3.523438 9.820312 -2.96875 11.59375 -2.96875 C 12.800781 -2.96875 13.785156 -3.144531 14.546875 -3.5 C 15.304688 -3.851562 15.976562 -4.304688 16.5625 -4.859375 C 16.945312 -5.085938 17.316406 -5.203125 17.671875 -5.203125 C 18.097656 -5.203125 18.457031 -5.050781 18.75 -4.75 C 19.039062 -4.445312 19.1875 -4.09375 19.1875 -3.6875 C 19.1875 -3.15625 18.9375 -2.671875 18.4375 -2.234375 C 17.695312 -1.503906 16.71875 -0.882812 15.5 -0.375 C 14.289062 0.125 13.050781 0.375 11.78125 0.375 C 9.726562 0.375 7.921875 -0.0507812 6.359375 -0.90625 C 4.804688 -1.769531 3.601562 -2.972656 2.75 -4.515625 C 1.90625 -6.066406 1.484375 -7.816406 1.484375 -9.765625 C 1.484375 -11.890625 1.921875 -13.753906 2.796875 -15.359375 C 3.671875 -16.972656 4.820312 -18.210938 6.25 -19.078125 C 7.675781 -19.941406 9.21875 -20.375 10.875 -20.375 C 12.488281 -20.375 14.003906 -19.953125 15.421875 -19.109375 C 16.847656 -18.273438 17.988281 -17.125 18.84375 -15.65625 C 19.707031 -14.1875 20.148438 -12.539062 20.171875 -10.71875 Z M 10.875 -17.03125 C 9.445312 -17.03125 8.210938 -16.628906 7.171875 -15.828125 C 6.140625 -15.023438 5.457031 -13.789062 5.125 -12.125 L 16.34375 -12.125 L 16.34375 -12.421875 C 16.21875 -13.765625 15.613281 -14.867188 14.53125 -15.734375 C 13.457031 -16.597656 12.238281 -17.03125 10.875 -17.03125 Z M 10.875 -17.03125 "/></g></g></g><g fill="#000000" fill-opacity="1"><g transform="translate(280.153644, 228.116733)"><g><path d="M 12.609375 -20.375 C 13.273438 -20.375 13.847656 -20.203125 14.328125 -19.859375 C 14.804688 -19.515625 15.046875 -19.085938 15.046875 -18.578125 C 15.046875 -17.972656 14.882812 -17.507812 14.5625 -17.1875 C 14.25 -16.875 13.863281 -16.71875 13.40625 -16.71875 C 13.1875 -16.71875 12.847656 -16.796875 12.390625 -16.953125 C 11.859375 -17.128906 11.441406 -17.21875 11.140625 -17.21875 C 10.347656 -17.21875 9.578125 -16.941406 8.828125 -16.390625 C 8.085938 -15.847656 7.484375 -15.101562 7.015625 -14.15625 C 6.546875 -13.207031 6.3125 -12.148438 6.3125 -10.984375 L 6.3125 -1.828125 C 6.3125 -1.316406 6.140625 -0.882812 5.796875 -0.53125 C 5.453125 -0.175781 5.015625 0 4.484375 0 C 3.953125 0 3.519531 -0.171875 3.1875 -0.515625 C 2.863281 -0.859375 2.703125 -1.296875 2.703125 -1.828125 L 2.703125 -18.09375 C 2.703125 -18.59375 2.867188 -19.019531 3.203125 -19.375 C 3.546875 -19.726562 3.972656 -19.90625 4.484375 -19.90625 C 5.015625 -19.90625 5.453125 -19.726562 5.796875 -19.375 C 6.140625 -19.019531 6.3125 -18.59375 6.3125 -18.09375 L 6.3125 -16.15625 C 6.863281 -17.394531 7.695312 -18.398438 8.8125 -19.171875 C 9.925781 -19.941406 11.191406 -20.34375 12.609375 -20.375 Z M 12.609375 -20.375 "/></g></g></g><g fill="#000000" fill-opacity="1"><g transform="translate(134.251984, 247.866692)"><g><path d="M 1.171875 0 L 1.171875 -8.5625 L 2.171875 -8.5625 L 2.171875 -0.90625 L 5.953125 -0.90625 L 5.953125 0 Z M 1.171875 0 "/></g></g></g><g fill="#000000" fill-opacity="1"><g transform="translate(142.14853, 247.866692)"><g><path d="M 3.75 0.125 C 2.800781 0.125 2.050781 -0.164062 1.5 -0.75 C 0.945312 -1.332031 0.671875 -2.132812 0.671875 -3.15625 C 0.671875 -4.195312 0.925781 -5.019531 1.4375 -5.625 C 1.945312 -6.238281 2.632812 -6.546875 3.5 -6.546875 C 4.300781 -6.546875 4.9375 -6.28125 5.40625 -5.75 C 5.875 -5.21875 6.109375 -4.519531 6.109375 -3.65625 L 6.109375 -3.03125 L 1.6875 -3.03125 C 1.707031 -2.28125 1.894531 -1.707031 2.25 -1.3125 C 2.613281 -0.925781 3.125 -0.734375 3.78125 -0.734375 C 4.46875 -0.734375 5.148438 -0.878906 5.828125 -1.171875 L 5.828125 -0.296875 C 5.484375 -0.148438 5.15625 -0.046875 4.84375 0.015625 C 4.539062 0.0859375 4.175781 0.125 3.75 0.125 Z M 3.484375 -5.71875 C 2.960938 -5.71875 2.546875 -5.550781 2.234375 -5.21875 C 1.929688 -4.882812 1.753906 -4.421875 1.703125 -3.828125 L 5.0625 -3.828125 C 5.0625 -4.441406 4.925781 -4.910156 4.65625 -5.234375 C 4.382812 -5.554688 3.992188 -5.71875 3.484375 -5.71875 Z M 3.484375 -5.71875 "/></g></g></g><g fill="#000000" fill-opacity="1"><g transform="translate(150.548983, 247.866692)"><g><path d="M 4.984375 0 L 4.78125 -0.921875 L 4.734375 -0.921875 C 4.421875 -0.515625 4.101562 -0.238281 3.78125 -0.09375 C 3.46875 0.0507812 3.070312 0.125 2.59375 0.125 C 1.957031 0.125 1.457031 -0.0390625 1.09375 -0.375 C 0.726562 -0.707031 0.546875 -1.175781 0.546875 -1.78125 C 0.546875 -3.070312 1.582031 -3.75 3.65625 -3.8125 L 4.75 -3.84375 L 4.75 -4.25 C 4.75 -4.75 4.640625 -5.117188 4.421875 -5.359375 C 4.210938 -5.597656 3.867188 -5.71875 3.390625 -5.71875 C 2.847656 -5.71875 2.242188 -5.554688 1.578125 -5.234375 L 1.265625 -5.984375 C 1.585938 -6.148438 1.9375 -6.28125 2.3125 -6.375 C 2.6875 -6.476562 3.066406 -6.53125 3.453125 -6.53125 C 4.210938 -6.53125 4.773438 -6.359375 5.140625 -6.015625 C 5.515625 -5.679688 5.703125 -5.140625 5.703125 -4.390625 L 5.703125 0 Z M 2.78125 -0.6875 C 3.382812 -0.6875 3.859375 -0.851562 4.203125 -1.1875 C 4.554688 -1.519531 4.734375 -1.984375 4.734375 -2.578125 L 4.734375 -3.15625 L 3.75 -3.125 C 2.976562 -3.09375 2.421875 -2.96875 2.078125 -2.75 C 1.742188 -2.539062 1.578125 -2.210938 1.578125 -1.765625 C 1.578125 -1.410156 1.679688 -1.140625 1.890625 -0.953125 C 2.097656 -0.773438 2.394531 -0.6875 2.78125 -0.6875 Z M 2.78125 -0.6875 "/></g></g></g><g fill="#000000" fill-opacity="1"><g transform="translate(158.890843, 247.866692)"><g><path d="M 3.96875 -6.546875 C 4.25 -6.546875 4.503906 -6.519531 4.734375 -6.46875 L 4.59375 -5.5625 C 4.332031 -5.625 4.097656 -5.65625 3.890625 -5.65625 C 3.367188 -5.65625 2.921875 -5.441406 2.546875 -5.015625 C 2.179688 -4.597656 2 -4.078125 2 -3.453125 L 2 0 L 1.03125 0 L 1.03125 -6.421875 L 1.828125 -6.421875 L 1.953125 -5.234375 L 2 -5.234375 C 2.226562 -5.648438 2.507812 -5.972656 2.84375 -6.203125 C 3.1875 -6.429688 3.5625 -6.546875 3.96875 -6.546875 Z M 3.96875 -6.546875 "/></g></g></g><g fill="#000000" fill-opacity="1"><g transform="translate(165.457311, 247.866692)"><g><path d="M 5.421875 0 L 5.421875 -4.15625 C 5.421875 -4.675781 5.300781 -5.066406 5.0625 -5.328125 C 4.832031 -5.585938 4.460938 -5.71875 3.953125 -5.71875 C 3.273438 -5.71875 2.78125 -5.535156 2.46875 -5.171875 C 2.15625 -4.804688 2 -4.207031 2 -3.375 L 2 0 L 1.03125 0 L 1.03125 -6.421875 L 1.828125 -6.421875 L 1.984375 -5.546875 L 2.03125 -5.546875 C 2.226562 -5.859375 2.503906 -6.101562 2.859375 -6.28125 C 3.222656 -6.457031 3.625 -6.546875 4.0625 -6.546875 C 4.84375 -6.546875 5.425781 -6.359375 5.8125 -5.984375 C 6.207031 -5.609375 6.40625 -5.007812 6.40625 -4.1875 L 6.40625 0 Z M 5.421875 0 "/></g></g></g><g fill="#000000" fill-opacity="1"><g transform="translate(174.490575, 247.866692)"><g/></g></g><g fill="#000000" fill-opacity="1"><g transform="translate(179.275793, 247.866692)"><g><path d="M 8.65625 0 L 7.671875 0 L 5.9375 -5.734375 C 5.851562 -5.992188 5.757812 -6.316406 5.65625 -6.703125 C 5.5625 -7.085938 5.515625 -7.316406 5.515625 -7.390625 C 5.421875 -6.878906 5.28125 -6.316406 5.09375 -5.703125 L 3.421875 0 L 2.4375 0 L 0.15625 -8.5625 L 1.21875 -8.5625 L 2.5625 -3.28125 C 2.75 -2.53125 2.890625 -1.859375 2.984375 -1.265625 C 3.085938 -1.972656 3.242188 -2.671875 3.453125 -3.359375 L 4.984375 -8.5625 L 6.03125 -8.5625 L 7.640625 -3.3125 C 7.828125 -2.707031 7.988281 -2.023438 8.125 -1.265625 C 8.195312 -1.816406 8.335938 -2.488281 8.546875 -3.28125 L 9.890625 -8.5625 L 10.953125 -8.5625 Z M 8.65625 0 "/></g></g></g><g fill="#000000" fill-opacity="1"><g transform="translate(192.053198, 247.866692)"><g><path d="M 2 0 L 1.03125 0 L 1.03125 -6.421875 L 2 -6.421875 Z M 0.953125 -8.15625 C 0.953125 -8.382812 1.003906 -8.550781 1.109375 -8.65625 C 1.222656 -8.757812 1.363281 -8.8125 1.53125 -8.8125 C 1.6875 -8.8125 1.816406 -8.753906 1.921875 -8.640625 C 2.035156 -8.535156 2.09375 -8.375 2.09375 -8.15625 C 2.09375 -7.9375 2.035156 -7.773438 1.921875 -7.671875 C 1.816406 -7.566406 1.6875 -7.515625 1.53125 -7.515625 C 1.363281 -7.515625 1.222656 -7.566406 1.109375 -7.671875 C 1.003906 -7.773438 0.953125 -7.9375 0.953125 -8.15625 Z M 0.953125 -8.15625 "/></g></g></g><g fill="#000000" fill-opacity="1"><g transform="translate(196.756388, 247.866692)"><g><path d="M 3.109375 -0.6875 C 3.273438 -0.6875 3.4375 -0.695312 3.59375 -0.71875 C 3.757812 -0.75 3.890625 -0.773438 3.984375 -0.796875 L 3.984375 -0.0625 C 3.878906 -0.0078125 3.722656 0.03125 3.515625 0.0625 C 3.316406 0.101562 3.132812 0.125 2.96875 0.125 C 1.726562 0.125 1.109375 -0.53125 1.109375 -1.84375 L 1.109375 -5.671875 L 0.1875 -5.671875 L 0.1875 -6.140625 L 1.109375 -6.546875 L 1.515625 -7.90625 L 2.078125 -7.90625 L 2.078125 -6.421875 L 3.9375 -6.421875 L 3.9375 -5.671875 L 2.078125 -5.671875 L 2.078125 -1.890625 C 2.078125 -1.503906 2.164062 -1.207031 2.34375 -1 C 2.53125 -0.789062 2.785156 -0.6875 3.109375 -0.6875 Z M 3.109375 -0.6875 "/></g></g></g><g fill="#000000" fill-opacity="1"><g transform="translate(202.660749, 247.866692)"><g><path d="M 5.421875 0 L 5.421875 -4.15625 C 5.421875 -4.675781 5.300781 -5.066406 5.0625 -5.328125 C 4.832031 -5.585938 4.460938 -5.71875 3.953125 -5.71875 C 3.273438 -5.71875 2.78125 -5.53125 2.46875 -5.15625 C 2.15625 -4.789062 2 -4.191406 2 -3.359375 L 2 0 L 1.03125 0 L 1.03125 -9.125 L 2 -9.125 L 2 -6.359375 C 2 -6.023438 1.984375 -5.75 1.953125 -5.53125 L 2.015625 -5.53125 C 2.203125 -5.84375 2.472656 -6.085938 2.828125 -6.265625 C 3.179688 -6.441406 3.585938 -6.53125 4.046875 -6.53125 C 4.828125 -6.53125 5.414062 -6.34375 5.8125 -5.96875 C 6.207031 -5.59375 6.40625 -5 6.40625 -4.1875 L 6.40625 0 Z M 5.421875 0 "/></g></g></g><g fill="#000000" fill-opacity="1"><g transform="translate(211.694016, 247.866692)"><g/></g></g><g fill="#000000" fill-opacity="1"><g transform="translate(216.479237, 247.866692)"><g><path d="M 2.171875 0 L 1.171875 0 L 1.171875 -8.5625 L 5.953125 -8.5625 L 5.953125 -7.6875 L 2.171875 -7.6875 L 2.171875 -4.546875 L 5.71875 -4.546875 L 5.71875 -3.65625 L 2.171875 -3.65625 Z M 2.171875 0 "/></g></g></g><g fill="#000000" fill-opacity="1"><g transform="translate(224.34063, 247.866692)"><g><path d="M 1.953125 -6.421875 L 1.953125 -2.25 C 1.953125 -1.726562 2.066406 -1.335938 2.296875 -1.078125 C 2.535156 -0.828125 2.910156 -0.703125 3.421875 -0.703125 C 4.097656 -0.703125 4.585938 -0.882812 4.890625 -1.25 C 5.203125 -1.613281 5.359375 -2.210938 5.359375 -3.046875 L 5.359375 -6.421875 L 6.328125 -6.421875 L 6.328125 0 L 5.53125 0 L 5.390625 -0.859375 L 5.34375 -0.859375 C 5.144531 -0.546875 4.867188 -0.300781 4.515625 -0.125 C 4.160156 0.0390625 3.753906 0.125 3.296875 0.125 C 2.515625 0.125 1.929688 -0.0625 1.546875 -0.4375 C 1.160156 -0.8125 0.96875 -1.40625 0.96875 -2.21875 L 0.96875 -6.421875 Z M 1.953125 -6.421875 "/></g></g></g><g fill="#000000" fill-opacity="1"><g transform="translate(233.373891, 247.866692)"><g><path d="M 5.421875 0 L 5.421875 -4.15625 C 5.421875 -4.675781 5.300781 -5.066406 5.0625 -5.328125 C 4.832031 -5.585938 4.460938 -5.71875 3.953125 -5.71875 C 3.273438 -5.71875 2.78125 -5.535156 2.46875 -5.171875 C 2.15625 -4.804688 2 -4.207031 2 -3.375 L 2 0 L 1.03125 0 L 1.03125 -6.421875 L 1.828125 -6.421875 L 1.984375 -5.546875 L 2.03125 -5.546875 C 2.226562 -5.859375 2.503906 -6.101562 2.859375 -6.28125 C 3.222656 -6.457031 3.625 -6.546875 4.0625 -6.546875 C 4.84375 -6.546875 5.425781 -6.359375 5.8125 -5.984375 C 6.207031 -5.609375 6.40625 -5.007812 6.40625 -4.1875 L 6.40625 0 Z M 5.421875 0 "/></g></g></g></svg>